<?xml version="1.0" encoding="utf-8"?>
<!-- Generator: Adobe Illustrator 27.0.0, SVG Export Plug-In . SVG Version: 6.00 Build 0)  -->
<svg version="1.1" id="Layer_1" xmlns="http://www.w3.org/2000/svg" xmlns:xlink="http://www.w3.org/1999/xlink" x="0px" y="0px"
	 viewBox="0 0 2575.1 758.2" style="enable-background:new 0 0 2575.1 758.2;" xml:space="preserve">
<style type="text/css">
	.st0{fill:#BADFFD;}
	.st1{fill:#226654;}
	.st2{fill:#40907A;}
	.st3{fill:#96CE58;}
	.st4{fill:#F7C545;}
	.st5{fill:#F19934;}
	.st6{fill:#95C5E5;}
	.st7{fill:#0877BD;}
	.st8{fill:#095A98;}
	.st9{fill:#0879C0;}
	.st10{fill:#ED9633;}
	.st11{fill:none;}
</style>
<path class="st0" d="M633.1,292.9c0.2,0.7,7.9,25.6,7.9,54c-0.1,12.3-1.3,24.7-3.9,36.8c-14.6,70.8-74.2,117.2-142.2,133
	c-52.2,12.1-108.5,10.4-161.6,9.2c-28.9-0.6-60.3-5.8-87,8.4c8.8-4.7,43.1-22.9,53-24.7c10-1.8,289.9,11.6,310.5-130.9
	c1.5-10.3,1.9-20.8,1.3-31.2c-0.3-5.2-0.8-10.4-1.6-15.5c-0.4-2.6-0.9-5.1-1.4-7.6c-0.3-1.2-0.5-2.5-0.8-3.7l-0.4-1.7l-0.2-0.8
	c-0.1-0.2-0.2-0.6-0.2-0.6L633.1,292.9z"/>
<path class="st0" d="M256,434.2c2.3-7.2,5.4-14.2,8.6-21.1c3.3-6.9,6.9-13.6,10.8-20.1c7.8-13.1,16.7-25.6,26.7-37.4
	c10-11.7,21.1-22.8,33.4-32.5c6.1-5,12.7-9.4,19.4-13.6c6.9-4.1,13.9-8,21.3-11.1c3.6-1.7,7.5-3,11.3-4.5l1.4-0.5l1.5-0.4l2.9-0.9
	l2.9-0.9c1-0.3,1.9-0.6,2.9-0.8l6-1.4c1-0.2,2-0.5,2.9-0.7l2.7-0.5l10.9-2.1l43.5-8.6c14.5-2.9,29-5.9,43.6-8.9l5.5-1.1
	c1.8-0.4,3.6-0.8,5.5-1.2l11-2.3l22.1-4.7c-6.2,4.4-12.8,8.2-19.5,11.8c-6.7,3.6-13.5,7-20.4,10.1c-13.8,6.3-27.9,11.8-42.1,16.8
	c-14.3,5-28.8,9.3-43.3,13.1l-11,2.8l-2.7,0.7c-0.9,0.2-1.7,0.4-2.5,0.7l-4.9,1.3c-1.6,0.4-3.2,1-4.8,1.5l-2.4,0.8l-1.2,0.4
	l-1.2,0.5c-3.2,1.2-6.4,2.4-9.5,3.8c-1.6,0.7-3.2,1.3-4.7,2.1l-4.6,2.3l-2.3,1.1l-2.3,1.3l-4.6,2.5c-6,3.5-12,7.2-17.7,11.3
	c-11.6,8-22.7,17.1-33.5,26.7c-10.8,9.7-21.1,20-31.3,30.7C275.8,411.6,265.9,422.7,256,434.2z"/>
<path class="st1" d="M748.8,101.3l64.8,30.9C684.3,164.2,545.4,356.2,500,366.3c-141.9,31.8-268,137.5-268,137.5
	c113.2-132.6,238.7-143.2,268-171.1C529.4,304.8,699,85.7,748.8,101.3z"/>
<path class="st2" d="M659.2,400.5c-12.8-4.1-24.2-9-34.5-14.3c-30.5-15.8-50.7-36.1-64.2-56.5c-8.4-12.7-14.2-25.4-18.1-37
	c-0.4-1.1-0.7-2.1-1-3.1c-2.4-7.5-4.1-14.7-5.3-21.6c-4-22-3-41.2-2.1-49.6c12.5,0.3,25.8,3.8,40.1,4.6c0,0.2-1.9,10.3-0.1,27.5
	c0.9,8.5,2.7,18.3,6,28.6c2.2,6.6,4.9,13,8,18.9c8.5,16.2,20.6,29.9,36.1,41.2c10.6,7.7,22.8,14.2,36.6,19.6
	C665.3,379.7,659.2,400.5,659.2,400.5z"/>
<path class="st3" d="M644.1,463.6L644.1,463.6c-5.2,14-11.8,26.5-19.6,37.4c-7.7-8.3-21.5-22.3-42.5-40.6
	c-14.7-12.8-33-27.8-55.2-44.4c-15.8-11.8-28.9-27.1-39.1-45.4c-3.3-5.9-6.3-12.2-8.9-18.7c-7.7-18.8-12.7-40.1-15.1-63.7
	c-0.2-1.9-0.4-3.8-0.5-5.7c-2.4-30.1,0.1-56.4,1.9-70.2c12.2-0.2,25.6,0.1,40.3,0.9c-1.4,9.1-4.5,34.3-2.5,63.5
	c1.1,16.1,3.8,33.4,9.1,49.9c3.2,10,7.5,19.7,12.9,28.7c6.6,10.9,15,20.6,25.7,28.6c21.9,16.3,40.1,31.2,55.2,44.1
	C622.3,442.4,634.9,454.4,644.1,463.6z"/>
<path class="st4" d="M605.8,522.3c-12.5,11.7-27.1,20.9-43.4,28c-9.8-8.6-27.3-23-56.4-44.2c-11-8-23.6-17-38.1-26.9
	c-30.9-21.3-52.2-45.5-67.1-70.3c-4.9-8.1-9.1-16.3-12.7-24.5c-10.2-23.2-15.9-46.3-19.5-67.5c-2.3-13.7-3.8-26.6-5.2-38.3
	c-1.9-16.1-3.6-31.6-6.9-41.1c13.7-8.1,28.6-14.3,46.5-18.5c5.7,15.2,7.8,33.4,10.1,53.9c1,8.7,2,17.7,3.4,27
	c3.2,21.8,8.2,44.8,18.6,67.3c3.3,7,7.1,14,11.5,20.8v0c11.5,17.8,27.4,34.8,49.6,50.1c24.9,17.2,44.7,31.6,60.2,43.4
	C584.6,502.7,599.1,515.7,605.8,522.3z"/>
<path class="st5" d="M506.6,565.8L506.6,565.8l3.7-0.7c-22.8-13.5-44.1-29.6-63.8-48.1c-14.1-13.2-27.3-27.6-39.6-43.1
	c-12.6-15.9-24.4-33-35.1-51.2c-4.7-7.9-9.2-16.1-13.5-24.4c-4.5-8.8-8.8-17.7-12.9-26.9c-4.8-10.8-8.8-20.9-12.1-30.2
	c-16.4-46.8-15.3-73.8-15.3-73.8s-31.9,22.4-38,40.1c0,0-0.9,13.1,18.4,67.9c1.5,3.5,3.1,7.3,4.8,11.2c5.2,11.8,10.8,23.3,16.7,34.4
	c3.8,7.1,7.7,14.2,11.7,21c11.7,20,24.6,38.8,38.4,56.3c6.3,8,13.4,15.7,20.8,23.1c21.5,21.4,45.2,39.3,57.8,48.2h0L506.6,565.8z"/>
<path class="st6" d="M351.7,567.7c-22.7,0.4-43.2,1.5-61.6,3c-0.7-14.1-4.1-29.8-10.3-46.9c-5.2-14.5-12.4-30-21.4-46.3
	c-0.2-0.3-0.4-0.6-0.5-1c-3.1-5.6-6.5-11.2-10-17c-12.8-20.7-25.8-38.1-34.5-49c0,0,16.9-32.5,27.5-45.3c0,0,12.7,21.3,28.2,47.9
	c6,10.3,12.4,21.4,18.8,32.5c2.6,4.5,5.2,9,7.7,13.5c16.5,28.9,31.1,55.4,34.5,63.8c0,0,0,0,0,0.1
	C336.6,539.2,346,554.1,351.7,567.7z"/>
<path class="st7" d="M198,442.1c29.6,29.8,42.2,65.7,47.6,92.8c4.7,23.7,3.8,40.7,3.8,40.7l-41.1,9c0-0.8,17.7-43-28.4-102.4
	L198,442.1z"/>
<polygon class="st8" points="171.5,541.7 123.1,629.3 183.5,595.9 "/>
<path class="st9" d="M1186.2,407h-139.6c-11,0-20-8.9-20-20c0-11,8.9-20,20-20h139.6c11,0,20,8.9,20,20
	C1206.2,398.1,1197.2,407,1186.2,407z"/>
<path class="st9" d="M1031.4,587.7H920.9c-11,0-20-8.9-20-20V389.3c0-11,8.9-20,20-20s20,8.9,20,20v158.4h90.5c11,0,20,8.9,20,20
	S1042.4,587.7,1031.4,587.7z"/>
<path class="st9" d="M1116.4,586c-11,0-20-8.9-20-20V391c0-11,8.9-20,20-20s20,8.9,20,20v175C1136.4,577,1127.4,586,1116.4,586z"/>
<path class="st9" d="M1397.4,587.7h-139.9c-11,0-20-8.9-20-20V387.1c0-11,8.9-20,20-20H1395c11,0,20,8.9,20,20c0,11-8.9,20-20,20
	h-117.5v140.7h119.9c11,0,20,8.9,20,20S1408.5,587.7,1397.4,587.7z"/>
<path class="st9" d="M1366.9,497.4h-109.4c-11,0-20-8.9-20-20c0-11,8.9-20,20-20h109.4c11,0,20,8.9,20,20
	C1386.9,488.4,1377.9,497.4,1366.9,497.4z"/>
<path class="st9" d="M1467.2,586.5c-11,0-20-8.9-20-20v-79.1c0,0,0,0,0-0.1V387.1c0-11,8.9-20,20-20h75.8
	c38.5,0,69.8,31.3,69.8,69.8c0,18.5-7.2,36-20.2,49.1s-30.4,20.5-49,20.7l-56.5,0.5v59.3C1487.2,577.6,1478.2,586.5,1467.2,586.5z
	 M1487.2,407v60.3l56.1-0.5c16.3-0.1,29.6-13.5,29.6-29.9c0-16.5-13.4-29.9-29.9-29.9H1487.2z"/>
<path class="st9" d="M1604.1,588.2c-6.6,0-13-3.3-16.8-9.2c-33.2-51.9-58-78.2-58.3-78.4c-7.6-8-7.3-20.6,0.7-28.2
	c8-7.6,20.6-7.3,28.2,0.6c1.1,1.2,27.5,29,63,84.5c5.9,9.3,3.2,21.6-6.1,27.6C1611.5,587.2,1607.8,588.2,1604.1,588.2z"/>
<path class="st10" d="M786,592c-1.1,0-2.2,0-3.3-0.1c-27.6-1-52.7-15.3-65.4-39.2c-18-33.9-16.7-72.5,0.3-100.6
	c6.8-11.3,16-20.2,27.3-26.5c11.8-6.6,25.4-9.9,40.4-9.9c27.4,0,48.2,8.3,62,24.7c21.4,25.5,15.6,60.4,15.3,61.9
	c-1.4,8.1-8.4,14-16.6,14H741.4c1.7,7,3.3,14,6.8,20.7c8.9,16.9,24.9,20.9,35.8,21.3c18,0.7,37.5-8.2,45.3-20.6
	c5-7.9,15.4-10.2,23.3-5.3c7.9,5,10.2,15.4,5.3,23.3c-7.1,11.3-18.3,20.8-32.2,27.4C813.2,588.9,799.5,592,786,592z M741.2,482.5
	h88.3c-0.8-6.6-2.9-14.4-8.1-20.6c-7-8.3-19.2-12.5-36-12.5c-17.5,0-30.9,6.9-38.8,20C744.2,473.4,742.4,477.8,741.2,482.5z"/>
<path class="st9" d="M1116.4,586c-11,0-20-8.9-20-20V391c0-11,8.9-20,20-20s20,8.9,20,20v175C1136.4,577,1127.4,586,1116.4,586z"/>
<g>
	<path class="st6" d="M1801.2,587.6h-109c-8.6,0-15.6-7-15.6-15.6V431.3c0-8.6,7-15.6,15.6-15.6h107.1c8.6,0,15.6,7,15.6,15.6
		s-7,15.6-15.6,15.6h-91.5v109.6h93.4c8.6,0,15.6,7,15.6,15.6S1809.8,587.6,1801.2,587.6z"/>
	<path class="st6" d="M1777.5,517.3h-85.2c-8.6,0-15.6-7-15.6-15.6s7-15.6,15.6-15.6h85.2c8.6,0,15.6,7,15.6,15.6
		S1786.1,517.3,1777.5,517.3z"/>
	<g>
		<path class="st6" d="M1992.5,586.7c-8.6,0-15.6-7-15.6-15.6v-61.6c0,0,0,0,0-0.1v-78.2c0-8.6,7-15.6,15.6-15.6h59.1
			c30,0,54.4,24.4,54.4,54.4c0,14.4-5.6,28-15.8,38.3c-10.2,10.3-23.7,16-38.1,16.1l-44,0.4v46.2
			C2008,579.8,2001.1,586.7,1992.5,586.7z M2008,446.9v46.9l43.7-0.4c12.7-0.1,23.1-10.6,23.1-23.3c0-12.8-10.4-23.3-23.3-23.3H2008
			z"/>
		<path class="st6" d="M2099.2,588c-5.1,0-10.1-2.5-13.1-7.2c-25.9-40.4-45.2-60.9-45.4-61.1c-5.9-6.2-5.7-16.1,0.5-22
			c6.2-5.9,16-5.7,22,0.5c0.9,0.9,21.4,22.6,49.1,65.8c4.6,7.2,2.5,16.9-4.7,21.5C2104.9,587.2,2102,588,2099.2,588z"/>
		<path class="st6" d="M2152.7,586.3c-8.6,0-15.6-7-15.6-15.6v-93.9c0-8.6,7-15.6,15.6-15.6s15.6,7,15.6,15.6v93.9
			C2168.2,579.3,2161.3,586.3,2152.7,586.3z"/>
		<path class="st6" d="M1847.2,586.3c-8.6,0-15.6-7-15.6-15.6v-101c0-8.6,7-15.6,15.6-15.6s15.6,7,15.6,15.6v101
			C1862.7,579.3,1855.8,586.3,1847.2,586.3z"/>
		<path class="st6" d="M1933.5,586.4c-8.5,0-15.5-6.9-15.5-15.5v-70.7c0-6-3.3-9.7-5.3-11.4c-2-1.7-6.2-4.3-12.1-3.3
			c-19.6,3.4-35,15.5-35.1,15.6c-6.6,5.4-16.3,4.3-21.7-2.3c-5.4-6.6-4.3-16.4,2.3-21.8c0.9-0.7,21.5-17.2,49.2-22
			c13.4-2.3,27,1.3,37.3,10.1c10.4,8.7,16.3,21.5,16.3,35.1v70.7C1948.9,579.4,1942,586.4,1933.5,586.4z"/>
		<path class="st6" d="M2351.1,586.3c-8.6,0-15.6-7-15.6-15.6v-141c0-8.6,7-15.6,15.6-15.6s15.6,7,15.6,15.6v141
			C2366.6,579.3,2359.7,586.3,2351.1,586.3z"/>
		<path class="st6" d="M2437.4,586.4c-8.5,0-15.5-6.9-15.5-15.5v-70.7c0-6-3.3-9.7-5.3-11.4c-2-1.7-6.2-4.3-12.1-3.3
			c-19.6,3.4-35,15.5-35.1,15.6c-6.6,5.4-16.3,4.3-21.7-2.3c-5.4-6.6-4.3-16.4,2.3-21.8c0.9-0.7,21.5-17.2,49.2-22
			c13.4-2.3,27,1.3,37.3,10.1c10.4,8.7,16.3,21.5,16.3,35.1v70.7C2452.8,579.4,2445.9,586.4,2437.4,586.4z"/>
		<path class="st6" d="M2316.3,546.1c-0.8-4-3.1-7.5-6.5-9.8c-3.4-2.3-7.5-3.1-11.5-2.4c-4,0.8-7.5,3.1-9.8,6.5
			c-6.7,9.9-17.9,15.9-29.8,15.9c-19.8,0-36-16.1-36-36c0-19.8,16.1-36,36-36c10.3,0,20.2,4.5,27,12.2c2.7,3.1,6.4,4.9,10.5,5.2
			c4.1,0.3,8-1.1,11.1-3.8c6.4-5.6,7-15.3,1.4-21.7c-12.7-14.4-30.9-22.7-50.1-22.7c-36.8,0-66.7,29.9-66.7,66.7
			s29.9,66.7,66.7,66.7c22.2,0,42.8-11,55.3-29.4C2316.3,554.2,2317.1,550.2,2316.3,546.1z"/>
		<circle class="st6" cx="2152.7" cy="430.2" r="16.1"/>
	</g>
</g>
</svg>
